<?xml version="1.0" encoding="UTF-8" standalone="no"?>
<svg
   xmlns:dc="http://purl.org/dc/elements/1.1/"
   xmlns:cc="http://creativecommons.org/ns#"
   xmlns:rdf="http://www.w3.org/1999/02/22-rdf-syntax-ns#"
   xmlns:svg="http://www.w3.org/2000/svg"
   xmlns="http://www.w3.org/2000/svg"
   width="250mm"
   height="250mm"
   viewBox="0 0 250 250"
   version="1.1"
   id="svg8">
  <defs
     id="defs2" />
  <metadata
     id="metadata5">
    <rdf:RDF>
      <cc:Work
         rdf:about="">
        <dc:format>image/svg+xml</dc:format>
        <dc:type
           rdf:resource="http://purl.org/dc/dcmitype/StillImage" />
        <dc:title></dc:title>
      </cc:Work>
    </rdf:RDF>
  </metadata>
  <g
     id="atben">
    <path
       d="m 87.368689,48.307345 c 0.0324,-0.139897 0.06348,-0.280042 0.09491,-0.42017 0.04404,-0.169188 0.08721,-0.338499 0.138643,-0.505449 0.06136,-0.203902 0.126318,-0.406539 0.191478,-0.609147 0.07826,-0.234692 0.160223,-0.467973 0.23982,-0.702168 0.09056,-0.262308 0.185555,-0.522916 0.281651,-0.783072 0.103222,-0.289082 0.211416,-0.576144 0.319761,-0.86317 0.123852,-0.321184 0.254176,-0.639617 0.383464,-0.958453 0.140544,-0.350049 0.28525,-0.698332 0.434175,-1.044592 0.153316,-0.359082 0.313782,-0.71483 0.479644,-1.067783 0.170583,-0.367556 0.351621,-0.729763 0.537625,-1.089055 0.19951,-0.38584 0.415528,-0.761946 0.63857,-1.133386 0.232671,-0.388674 0.483923,-0.76454 0.73681,-1.139046 0.259925,-0.382299 0.535066,-0.752696 0.82189,-1.113348 0.287942,-0.366108 0.597355,-0.712699 0.905637,-1.060017 0.311857,-0.352565 0.641579,-0.686979 0.978292,-1.013478 0.340241,-0.328525 0.697398,-0.636986 1.060067,-0.937993 0.368098,-0.304117 0.749511,-0.589697 1.137134,-0.865903 0.383929,-0.266793 0.783153,-0.5079 1.188332,-0.737488 0.395407,-0.224525 0.803961,-0.420425 1.219996,-0.599171 0.402371,-0.178459 0.815288,-0.327144 1.233952,-0.457686 0.41289,-0.134447 0.84012,-0.208378 1.26799,-0.266895 3.99245,-0.203111 8.16675,-0.780312 12.10827,0.150023 0.4308,0.09616 0.84904,0.241727 1.26346,0.395673 0.4094,0.166698 0.80682,0.361375 1.20153,0.562257 0.40258,0.205443 0.78447,0.450712 1.15007,0.720288 0.3939,0.294033 0.75389,0.631158 1.09981,0.983649 0.36769,0.360369 0.71192,0.745647 1.04296,1.142463 0.35325,0.412026 0.66839,0.855409 0.96833,1.310299 0.32993,0.504351 0.61783,1.036271 0.89444,1.573743 0.30654,0.601255 0.57253,1.222837 0.82006,1.852504 0.26802,0.686721 0.50732,1.384903 0.73708,2.086358 0.24788,0.757903 0.46887,1.524823 0.67955,2.294725 0.23033,0.846233 0.42914,1.701139 0.6298,2.555377 0.21335,0.913801 0.41052,1.831569 0.60329,2.750292 0.19602,0.950503 0.38451,1.902695 0.56878,2.85574 0.19659,1.018161 0.37247,2.040441 0.5418,3.063861 0.1802,1.0981 0.34355,2.19908 0.50104,3.30094 0.16839,1.18076 0.31886,2.36414 0.46289,3.54836 0.15509,1.27889 0.28343,2.5611 0.41008,3.84333 0.1308,1.33068 0.25255,2.66227 0.36494,3.99477 0.11499,1.35356 0.20861,2.70892 0.29449,4.06478 0.0898,1.41462 0.15813,2.83058 0.2201,4.24678 0.0656,1.47072 0.11034,2.94232 0.14516,4.41415 0.0359,1.52488 0.051,3.05018 0.0576,4.57548 0.007,1.55607 -0.005,3.11213 -0.0251,4.66806 -0.0191,1.55872 -0.0556,3.1171 -0.10686,4.67502 -0.0515,1.54362 -0.12027,3.08656 -0.19638,4.629073 -0.0733,1.52683 -0.16112,3.05282 -0.25654,4.57832 -0.0963,1.54459 -0.20492,3.0883 -0.31926,4.63155 -0.11535,1.55197 -0.23558,3.10356 -0.35975,4.6548 -0.1236,1.5531 -0.25463,3.10555 -0.38269,4.65826 -0.13013,1.54337 -0.26066,3.08671 -0.39569,4.62964 -0.13225,1.51537 -0.27131,3.0301 -0.41268,4.54456 -0.14223,1.51051 -0.29496,3.01991 -0.45095,4.52893 -0.15512,1.48532 -0.31952,2.96954 -0.48499,4.45364 -0.16077,1.42923 -0.33042,2.85733 -0.50105,4.28532 -0.16711,1.36711 -0.33712,2.73384 -0.51122,4.10001 -0.17039,1.32202 -0.34988,2.64274 -0.53962,3.96189 -0.18455,1.28318 -0.38189,2.56429 -0.59214,3.84315 -0.20777,1.2465 -0.43162,2.48994 -0.66307,3.73185 -0.22414,1.19186 -0.45557,2.38224 -0.69628,3.57057 -0.23176,1.14224 -0.47494,2.28192 -0.72504,3.41993 -0.23864,1.08767 -0.4911,2.17196 -0.74861,3.25492 -0.24565,1.03994 -0.50692,2.07572 -0.76758,3.11164 -0.25134,0.9999 -0.5142,1.99655 -0.78341,2.99135 -0.25974,0.96184 -0.53225,1.91981 -0.81144,2.87567 -0.26745,0.92245 -0.56017,1.83649 -0.86703,2.74538 -0.29253,0.8641 -0.61724,1.71564 -0.95534,2.56128 -0.31671,0.7921 -0.66039,1.57185 -1.0174,2.34495 -0.33418,0.72442 -0.69494,1.43473 -1.07083,2.13639 -0.35432,0.65877 -0.74119,1.29744 -1.13642,1.93006 -0.37274,0.59441 -0.76829,1.17263 -1.1737,1.74311 -0.38425,0.53922 -0.79952,1.05286 -1.22266,1.55899 -0.39901,0.48235 -0.83017,0.93357 -1.27023,1.37476 -0.0753,0.0727 -0.1506,0.14542 -0.2259,0.21812 0,0 -10.916368,-0.9951 -10.916368,-0.9951 v 0 c 0.07407,-0.0583 0.148224,-0.11649 0.222342,-0.17473 0.442308,-0.39361 0.863159,-0.81302 1.261252,-1.25512 0.419089,-0.47779 0.831814,-0.96237 1.216794,-1.47071 0.40785,-0.54187 0.79742,-1.09837 1.16923,-1.6678 0.39262,-0.60703 0.77609,-1.22076 1.1323,-1.85196 0.37559,-0.67705 0.73804,-1.36199 1.0675,-2.06496 0.35698,-0.75157 0.70084,-1.50997 1.01484,-2.28232 0.33751,-0.82346 0.66151,-1.65302 0.953,-2.49557 0.30734,-0.89104 0.59989,-1.78759 0.86543,-2.69324 0.27821,-0.94857 0.55291,-1.89825 0.81081,-2.85309 0.26994,-0.98692 0.53154,-1.97628 0.78284,-2.96855 0.25932,-1.03146 0.52208,-2.06203 0.76724,-3.09728 0.25779,-1.07609 0.50971,-2.15375 0.74816,-3.23468 0.25076,-1.13129 0.49297,-2.26462 0.72462,-3.40033 0.24151,-1.18188 0.47168,-2.36627 0.69592,-3.55184 0.23164,-1.2334 0.4545,-2.46857 0.66263,-3.70655 0.21076,-1.2707 0.40785,-2.5438 0.59177,-3.81905 0.19018,-1.3125 0.36892,-2.62676 0.53935,-3.94221 0.17396,-1.36305 0.34373,-2.72667 0.51111,-4.09061 0.1703,-1.42489 0.34009,-2.84984 0.50094,-4.27593 0.16516,-1.48096 0.3297,-2.96199 0.4849,-4.44414 0.15577,-1.50509 0.3086,-3.01051 0.45083,-4.51707 0.14126,-1.51219 0.28046,-3.0246 0.4126,-4.53769 0.135,-1.5409 0.26549,-3.08223 0.39564,-4.62359 0.12789,-1.55182 0.25905,-3.10336 0.38267,-4.65557 0.12437,-1.54887 0.24428,-3.09813 0.3597,-4.64776 0.11443,-1.53867 0.22286,-3.07784 0.31916,-4.61787 0.0955,-1.52024 0.18334,-3.041 0.25647,-4.56261 0.0761,-1.535993 0.14465,-3.072423 0.19629,-4.609533 0.0514,-1.5499 0.0877,-3.10026 0.10681,-4.65097 0.02,-1.54912 0.0317,-3.09839 0.0251,-4.64765 -0.007,-1.51758 -0.0216,-3.03515 -0.0575,-4.55232 -0.0349,-1.46384 -0.0796,-2.92746 -0.14507,-4.39021 -0.0619,-1.40842 -0.13028,-2.81659 -0.21998,-4.22343 -0.0858,-1.34755 -0.17954,-2.69459 -0.29431,-4.03984 -0.11245,-1.32681 -0.23426,-2.65273 -0.36479,-3.97775 -0.12625,-1.27325 -0.25443,-2.54643 -0.40978,-3.81623 -0.14391,-1.1759 -0.29428,-2.35094 -0.46256,-3.52335 -0.15727,-1.09306 -0.32031,-2.18527 -0.50063,-3.27449 -0.16907,-1.01278 -0.34491,-2.02438 -0.54122,-3.031861 -0.18425,-0.946678 -0.37136,-1.892796 -0.56841,-2.836676 -0.19244,-0.909544 -0.38929,-1.818116 -0.60269,-2.722603 -0.1977,-0.839495 -0.3977,-1.678615 -0.62863,-2.509005 -0.21021,-0.750104 -0.43055,-1.497218 -0.6778,-2.235088 -0.22784,-0.676823 -0.4651,-1.350506 -0.73442,-2.010796 -0.24607,-0.58951 -0.51048,-1.170967 -0.81476,-1.730618 -0.27193,-0.494409 -0.5573,-0.981569 -0.88701,-1.436988 -0.30008,-0.410095 -0.61887,-0.80472 -0.95971,-1.178852 -0.33171,-0.357712 -0.67132,-0.707435 -1.03446,-1.03079 -0.34111,-0.290393 -0.696,-0.564448 -1.0823,-0.786881 -0.36872,-0.207981 -0.74446,-0.401587 -1.13384,-0.564459 -0.38604,-0.164136 -0.77857,-0.315721 -1.18458,-0.417258 -0.40856,-0.105349 -0.82145,-0.191545 -1.24159,-0.22797 -0.21004,-0.01412 -0.41797,-0.02593 -0.62854,-0.02351 -0.07,7.81e-4 -0.27984,0.0042 -0.20987,0.0042 10.7525,0.0061 14.14512,0.231861 10.40688,-0.01196 -0.4138,-0.02299 -0.82699,-0.0074 -1.23802,0.05058 -0.41135,0.07347 -0.82031,0.166131 -1.21558,0.307953 -0.40703,0.148027 -0.81645,0.293192 -1.2072,0.484352 -0.40081,0.191828 -0.79657,0.395138 -1.17719,0.628047 -0.38923,0.232523 -0.76597,0.48629 -1.12762,0.763331 -0.35908,0.27267 -0.71342,0.552355 -1.05273,0.851557 -0.33378,0.295674 -0.66179,0.598703 -0.97124,0.922174 -0.30769,0.323773 -0.60595,0.657311 -0.90096,0.993618 -0.28096,0.335056 -0.56364,0.669179 -0.81644,1.028378 -0.25429,0.349669 -0.49793,0.707952 -0.73294,1.07198 -0.22033,0.346961 -0.43688,0.696786 -0.63468,1.058388 -0.18565,0.339809 -0.36389,0.683644 -0.53498,1.031684 -0.16099,0.342121 -0.32502,0.682641 -0.478,1.028796 -0.14552,0.338062 -0.29205,0.675596 -0.433049,1.015767 -0.125505,0.315649 -0.253167,0.630319 -0.382931,0.944085 -0.110793,0.278439 -0.21794,0.558666 -0.318962,0.841092 -0.09292,0.256227 -0.189397,0.511057 -0.281127,0.767699 -0.0833,0.228997 -0.161417,0.459987 -0.239445,0.69094 -0.06889,0.190161 -0.132129,0.382717 -0.190462,0.576646 -0.04721,0.15106 -0.101247,0.299683 -0.137218,0.454313 -0.03996,0.12424 -0.06399,0.252467 -0.09395,0.379563 0,0 -10.955029,-0.26573 -10.955029,-0.26573 z"
       id="path2607"
       style="opacity:1;fill:#000000;fill-opacity:1;fill-rule:nonzero;stroke:none;stroke-width:11.54811478;stroke-linecap:butt;stroke-linejoin:round;stroke-miterlimit:4;stroke-dasharray:none;stroke-opacity:1;paint-order:fill markers stroke" />
    <path
       d="m 113.93592,44.108652 c 0.0728,-0.141317 0.14347,-0.284084 0.21102,-0.42821 0.0865,-0.176284 0.18683,-0.344149 0.28688,-0.512237 0.11651,-0.211948 0.25607,-0.407939 0.38571,-0.610987 0.16317,-0.253727 0.35255,-0.487697 0.53925,-0.722659 0.21301,-0.280726 0.44883,-0.541549 0.6829,-0.803057 0.26014,-0.290444 0.53574,-0.565382 0.81977,-0.830187 0.31,-0.294987 0.63911,-0.566393 0.9664,-0.839833 0.35794,-0.289958 0.72364,-0.569618 1.09614,-0.838887 0.38372,-0.282584 0.77582,-0.552267 1.17264,-0.81432 0.40938,-0.265598 0.82611,-0.518943 1.24534,-0.767209 0.43516,-0.255783 0.8797,-0.493497 1.32689,-0.725393 0.45997,-0.240101 0.92947,-0.459142 1.40129,-0.672463 0.48181,-0.21697 0.96947,-0.419261 1.45895,-0.616554 0.49885,-0.198017 1.00004,-0.389915 1.5052,-0.56973 0.52856,-0.186552 1.06233,-0.356029 1.60176,-0.504827 0.59342,-0.166549 1.19755,-0.287023 1.80385,-0.389223 0.64221,-0.106381 1.2879,-0.185725 1.93425,-0.258488 0.67151,-0.07387 1.34525,-0.118698 2.01949,-0.154014 4.31556,-0.147929 8.64178,-0.202221 12.95515,0.01506 0.74291,0.03248 1.48492,0.08688 2.22553,0.155553 0.76596,0.07553 1.53141,0.155948 2.29489,0.255215 0.77758,0.09261 1.55154,0.212952 2.32591,0.330188 0.77955,0.127466 1.55808,0.262418 2.33422,0.41094 0.76036,0.135992 1.51702,0.292411 2.27381,0.448182 0.7477,0.156234 1.48773,0.347071 2.22516,0.548608 0.76827,0.216468 1.52409,0.476312 2.28211,0.728081 0.757,0.248749 1.50702,0.518587 2.25278,0.801624 0.74923,0.280785 1.4846,0.598932 2.21629,0.925554 0.74789,0.338173 1.48733,0.697036 2.2187,1.072398 0.75031,0.378528 1.47455,0.80952 2.1907,1.253295 0.74986,0.469722 1.46453,0.995142 2.16776,1.53655 0.72945,0.567939 1.43552,1.167716 2.13241,1.77823 0.70634,0.627987 1.39304,1.279125 2.06286,1.949048 0.66322,0.665831 1.30135,1.358115 1.93317,2.056136 0.62669,0.690993 1.21798,1.414623 1.78761,2.15698 0.58826,0.764421 1.12493,1.569035 1.64056,2.387815 0.52355,0.821705 0.9971,1.675496 1.44283,2.545136 0.4558,0.89946 0.81877,1.8436 1.15493,2.79709 0.3365,0.97343 0.60536,1.97006 0.85607,2.97058 0.25623,1.02152 0.42843,2.06159 0.57438,3.10543 0.14451,1.07759 0.21897,2.16328 0.27039,3.24943 0.0511,1.09953 0.0431,2.20034 0.006,3.30004 -0.0423,1.10691 -0.14962,2.20938 -0.28036,3.30824 -0.13173,1.08688 -0.31408,2.16595 -0.51479,3.24098 -0.20328,1.0841 -0.46662,2.15417 -0.75229,3.21739 -0.29081,1.06563 -0.63474,2.1142 -0.99735,3.15522 -0.36012,1.02676 -0.76127,2.03689 -1.17732,3.04014 -0.41826,1.00173 -0.87913,1.98314 -1.35499,2.95623 -0.47513,0.97135 -0.99109,1.91971 -1.51988,2.8601 -0.52809,0.93301 -1.0909,1.84382 -1.66374,2.74742 -0.56227,0.88822 -1.15618,1.75369 -1.75973,2.61169 -0.59198,0.84381 -1.21482,1.66305 -1.84586,2.47522 -0.61584,0.791743 -1.26044,1.558133 -1.91446,2.315573 -0.63545,0.73346 -1.29606,1.4425 -1.96431,2.14333 -0.65063,0.68914 -1.33797,1.33768 -2.04804,1.9591 -0.69631,0.61032 -1.4438,1.15019 -2.20744,1.66354 -0.75059,0.498 -1.53602,0.93384 -2.33046,1.34978 -0.76725,0.39951 -1.54948,0.76641 -2.33708,1.11984 -0.76883,0.34473 -1.55156,0.65351 -2.33843,0.95001 -0.76469,0.28683 -1.53937,0.54222 -2.32011,0.77677 -0.7536,0.22434 -1.51848,0.40322 -2.28487,0.57248 -0.7319,0.1558 -1.46735,0.29295 -2.20539,0.41296 -0.70177,0.11475 -1.40696,0.20534 -2.11359,0.28013 -0.66758,0.0749 -1.3375,0.12006 -2.00824,0.14786 -4.23241,0.05 -8.49468,0.32353 -12.71647,-0.0919 -0.58842,-0.059 -1.17198,-0.15739 -1.75237,-0.27268 -0.53682,-0.10934 -1.0651,-0.257 -1.58683,-0.42725 -0.47278,-0.16979 -0.93129,-0.37748 -1.37975,-0.60729 -0.41193,-0.20826 -0.79943,-0.46337 -1.17466,-0.73563 -0.34754,-0.25456 -0.66021,-0.5539 -0.9551,-0.87134 -0.26462,-0.28291 -0.51112,-0.58305 -0.74685,-0.89225 -0.22639,-0.29101 -0.41991,-0.60702 -0.5821,-0.94097 -0.14537,-0.31492 -0.26748,-0.64068 -0.37348,-0.97204 -0.098,-0.31199 -0.1584,-0.6344 -0.20143,-0.95903 -0.0403,-0.31398 -0.0421,-0.6307 -0.0283,-0.94654 0.0149,-0.31027 0.0663,-0.61619 0.13237,-0.91853 0.0689,-0.30703 0.16968,-0.60458 0.28648,-0.89497 0.12815,-0.30939 0.29048,-0.60141 0.47578,-0.877 0.19935,-0.30838 0.44517,-0.57773 0.69299,-0.84332 0.27134,-0.2852 0.56904,-0.53992 0.87565,-0.78228 0.32676,-0.26119 0.67505,-0.49023 1.02756,-0.71114 0.37101,-0.2343 0.75663,-0.441883 1.14397,-0.644883 0.40533,-0.20967 0.8155,-0.40912 1.23195,-0.59359 0.43979,-0.19201 0.88731,-0.36308 1.3376,-0.52605 0.4875,-0.17197 0.98661,-0.30215 1.48705,-0.42522 0.5304,-0.12317 1.06634,-0.21772 1.60342,-0.30274 0.55102,-0.0864 1.1041,-0.15558 1.65748,-0.22282 0.58498,-0.0695 1.17225,-0.11147 1.75978,-0.14828 0.61651,-0.0328 1.23359,-0.048 1.85075,-0.0585 4.23145,-0.0593 8.4644,-0.0672 12.69574,0.008 0.62875,0.0162 1.25789,0.0309 1.88618,0.0616 0.6338,0.0287 1.2668,0.0726 1.89969,0.11766 0.63548,0.0533 1.27079,0.10689 1.90569,0.16704 0.63655,0.0649 1.27118,0.14777 1.9046,0.23983 0.65477,0.10366 1.30776,0.22007 1.95831,0.34937 0.66692,0.13501 1.33132,0.28285 1.99384,0.43958 0.66255,0.16517 1.3225,0.34078 1.97864,0.53173 0.65754,0.19478 1.31381,0.39404 1.9661,0.60722 0.65493,0.218173 1.30407,0.455543 1.9446,0.716033 0.66906,0.27598 1.32026,0.59601 1.96587,0.92638 0.65813,0.34107 1.30169,0.7106 1.93533,1.09853 0.63888,0.38793 1.25764,0.80948 1.86748,1.24484 0.60881,0.43245 1.19859,0.89368 1.77452,1.37242 0.57505,0.46958 1.1273,0.96848 1.66612,1.4824 0.54542,0.52379 1.05224,1.08833 1.545,1.66539 0.5059,0.60061 0.95947,1.24535 1.40078,1.89807 0.44487,0.67011 0.84156,1.37276 1.21822,2.0863 0.38201,0.73397 0.71264,1.49444 1.01762,2.26603 0.31476,0.80237 0.567,1.62862 0.79706,2.46095 0.23724,0.87116 0.42155,1.75632 0.57746,2.64678 0.16314,0.95576 0.26357,1.92108 0.35709,2.88638 0.0958,1.008 0.16095,2.01864 0.21577,3.02983 0.056,1.02856 0.0724,2.05853 0.0672,3.08852 -0.01,1.04156 -0.0669,2.08149 -0.14604,3.11954 -0.0801,1.03555 -0.20459,2.06625 -0.34398,3.09467 -0.13999,1.0328 -0.32107,2.05876 -0.52477,3.07975 -0.21163,1.05974 -0.49358,2.10158 -0.79357,3.13717 -0.31671,1.09115 -0.7016,2.15806 -1.10955,3.21505 -0.42697,1.10157 -0.90299,2.18114 -1.39428,3.2528 -0.49664,1.0809 -1.02873,2.14331 -1.57736,3.19632 -0.55375,1.06131 -1.15137,2.09646 -1.76045,3.12395 -0.60899,1.02371 -1.24043,2.03254 -1.88995,3.02872 -0.67133,1.0292 -1.3917,2.02168 -2.13179,2.99774 -0.76113,0.99449 -1.55856,1.95775 -2.36096,2.91599 -0.78686,0.93723 -1.59311,1.85645 -2.40463,2.77044 -0.78298,0.88235 -1.5811,1.74981 -2.38552,2.61087 -0.78393,0.836 -1.58706,1.652 -2.39836,2.45898 -0.79351,0.78563 -1.60959,1.5459 -2.43178,2.29861 -0.80588,0.73835 -1.63683,1.44588 -2.47098,2.14895 -0.81424,0.68379 -1.64379,1.3473 -2.47865,2.00336 -0.80868,0.63447 -1.62572,1.25711 -2.44862,1.87133 -0.79661,0.59401 -1.60566,1.16947 -2.41895,1.73827 -0.78962,0.55516 -1.58813,1.09626 -2.39137,1.62968 -0.78499,0.52701 -1.5886,1.02218 -2.39828,1.50648 -0.78912,0.4722 -1.59731,0.90784 -2.41092,1.33192 -0.78659,0.4121 -1.58827,0.79132 -2.39271,1.16363 -0.78057,0.35817 -1.57181,0.69009 -2.36726,1.01039 -0.76963,0.30789 -1.54575,0.59775 -2.32574,0.87573 -0.76024,0.2704 -1.5271,0.51982 -2.29721,0.75766 -0.75147,0.23438 -1.51196,0.43531 -2.27391,0.62869 -0.73887,0.18888 -1.48242,0.35627 -2.22796,0.5137 -0.71886,0.15304 -1.44135,0.28659 -2.16455,0.41507 -0.69263,0.1215 -1.38852,0.22026 -2.08513,0.31303 -0.67018,0.0885 -1.34286,0.15199 -2.01628,0.20638 -4.24923,0.24936 -8.56092,0.0718 -12.77927,0.0732 -0.63352,-0.017 -1.26558,-0.067 -1.89761,-0.11278 -0.61232,-0.0482 -1.22255,-0.11836 -1.83287,-0.18789 -0.58901,-0.0794 -1.1769,-0.16879 -1.76232,-0.27319 -0.56678,-0.10746 -1.12836,-0.24319 -1.68758,-0.38688 -0.5419,-0.13801 -1.07676,-0.30047 -1.60607,-0.48369 -0.51444,-0.17487 -1.01199,-0.39629 -1.51387,-0.60554 -0.48488,-0.21475 -0.96495,-0.44201 -1.43735,-0.68518 -0.31012,-0.16646 -0.15565,-0.0809 -0.46336,-0.25683 0,0 10.89153,-1.25673 10.89153,-1.25673 v 0 c 0.30552,0.14793 0.15242,0.0749 0.45931,0.21924 0.47196,0.21525 0.94477,0.42887 1.42916,0.61238 0.49341,0.1953 0.99451,0.36923 1.50321,0.51629 0.52842,0.1493 1.06044,0.28503 1.59596,0.40384 0.55609,0.11932 1.11342,0.23278 1.67699,0.30751 0.58353,0.0826 1.16731,0.16501 1.75435,0.21609 0.60773,0.0602 1.21655,0.10921 1.82624,0.14176 0.62861,0.0346 1.25799,0.0574 1.88757,0.0453 -18.46887,0.008 -12.84914,0.0466 -8.87681,-0.01 0.67025,-0.0266 1.34007,-0.072 2.00731,-0.14398 0.69456,-0.0717 1.38778,-0.15829 2.07834,-0.26411 0.72195,-0.10883 1.44114,-0.23551 2.15876,-0.37195 0.74256,-0.14795 1.48576,-0.29394 2.22244,-0.47166 0.75816,-0.18022 1.51536,-0.36547 2.26695,-0.57373 0.76763,-0.2232 1.53357,-0.45334 2.29145,-0.71062 0.77804,-0.26306 1.55333,-0.53503 2.32046,-0.83123 0.79255,-0.30434 1.58236,-0.61684 2.36124,-0.95773 0.80316,-0.35054 1.59968,-0.71784 2.38648,-1.10678 0.8088,-0.40823 1.6172,-0.81853 2.40451,-1.27072 0.80873,-0.46202 1.61109,-0.93716 2.39248,-1.44812 0.80273,-0.52213 1.60114,-1.05154 2.38841,-1.5988 0.80923,-0.56301 1.62059,-1.12291 2.41605,-1.70709 0.82304,-0.60327 1.64088,-1.21429 2.44608,-1.8433 0.83351,-0.64362 1.66159,-1.29498 2.47533,-1.96566 0.8326,-0.68737 1.65887,-1.38343 2.46704,-2.10192 0.82048,-0.73776 1.63354,-1.48475 2.42811,-2.25285 0.81229,-0.79008 1.61141,-1.59481 2.39505,-2.4158 0.80625,-0.8481 1.60159,-1.70753 2.38328,-2.58031 0.81084,-0.90265 1.61429,-1.81265 2.40229,-2.7371 0.79876,-0.94321 1.59307,-1.89091 2.35751,-2.86476 0.73832,-0.94744 1.45751,-1.9112 2.12663,-2.91353 0.65053,-0.97774 1.28189,-1.969 1.88713,-2.97802 0.60679,-1.0068 1.20355,-2.02055 1.75722,-3.06044 0.54848,-1.03264 1.08011,-2.07503 1.57466,-3.13709 0.48998,-1.04758 0.96468,-2.10332 1.39139,-3.18092 0.40471,-1.02315 0.79125,-2.05444 1.10618,-3.11217 0.29757,-1.00207 0.58002,-2.00977 0.79111,-3.03616 0.20512,-0.99503 0.38377,-1.996 0.5235,-3.00345 0.1386,-1.00514 0.26355,-2.0124 0.34324,-3.02478 0.0791,-1.00936 0.1357,-2.02069 0.14569,-3.03365 0.005,-1.00631 -0.0114,-2.01261 -0.0671,-3.01747 -0.0547,-0.99423 -0.11958,-1.98792 -0.21538,-2.9789 -0.0919,-0.9338 -0.19161,-1.8676 -0.3558,-2.79119 -0.15635,-0.85165 -0.33815,-1.69846 -0.5748,-2.53023 -0.22866,-0.78968 -0.47907,-1.57304 -0.79279,-2.33112 -0.30397,-0.72843 -0.63181,-1.44643 -1.0119,-2.13555 -0.37482,-0.67197 -0.76664,-1.33435 -1.21125,-1.95921 -0.43573,-0.612 -0.88811,-1.2119 -1.39205,-1.76519 -0.49012,-0.53935 -0.995,-1.06443 -1.5361,-1.54869 -0.5403,-0.48425 -1.08973,-0.95726 -1.65947,-1.40367 -0.57742,-0.44781 -1.16204,-0.88563 -1.76718,-1.29216 -0.60822,-0.40763 -1.22592,-0.79987 -1.85949,-1.16344 -0.63222,-0.35792 -1.27136,-0.70312 -1.9264,-1.0138 -0.64135,-0.30103 -1.28904,-0.5882 -1.95458,-0.82675 -0.64123,-0.23024 -1.28464,-0.45417 -1.9366,-0.64949 -0.65164,-0.19741 -1.30406,-0.39248 -1.9613,-0.56875 -0.65458,-0.1716 -1.31075,-0.33763 -1.97193,-0.47957 -0.66081,-0.14209 -1.32237,-0.28103 -1.98809,-0.396303 -0.64846,-0.11022 -1.29746,-0.21854 -1.95069,-0.29383 -0.63174,-0.075 -1.26401,-0.14502 -1.89815,-0.1943 -0.63349,-0.0534 -1.26748,-0.10227 -1.90194,-0.141 -0.63128,-0.0376 -1.26298,-0.0681 -1.89506,-0.0863 -0.62751,-0.0148 -1.25492,-0.035 -1.88264,-0.0378 -5.11487,-0.0558 14.55964,0.0224 8.95518,-0.008 -0.61547,0.008 -1.23103,0.009 -1.84629,0.0286 -0.58413,0.0128 -1.1682,0.0386 -1.75074,0.086 -0.55166,0.0432 -1.10228,0.10251 -1.65095,0.1763 -0.53255,0.0685 -1.06501,0.13972 -1.59407,0.23376 -0.49495,0.0849 -0.98749,0.18728 -1.47334,0.317943 -0.44926,0.11928 -0.892,0.26277 -1.32639,0.43201 -0.41326,0.15649 -0.82423,0.3193 -1.22297,0.51337 -0.3821,0.18081 -0.76164,0.36739 -1.13568,0.56577 -0.34362,0.19084 -0.68642,0.38396 -1.01672,0.59921 -0.29494,0.20044 -0.59056,0.40142 -0.863,0.63468 -0.23844,0.20153 -0.46562,0.41849 -0.67911,0.64845 -0.16652,0.20318 -0.33926,0.40215 -0.46315,0.63838 -0.11452,0.21274 -0.21337,0.43342 -0.27893,0.66849 -0.0625,0.22684 -0.115,0.45694 -0.12913,0.69343 -0.0136,0.23746 -0.0116,0.47582 0.0271,0.71102 0.0433,0.25115 0.10341,0.4987 0.19602,0.73552 0.10245,0.26406 0.21204,0.52698 0.3647,0.7645 0.17592,0.2593 0.36366,0.50886 0.57031,0.74264 0.2327,0.26383 0.47271,0.52147 0.73651,0.75199 0.29515,0.24559 0.60461,0.47177 0.93644,0.6609 0.37456,0.21409 0.75787,0.41036 1.15729,0.56964 0.4445,0.17558 0.89516,0.33674 1.36023,0.44294 0.51937,0.12515 1.04232,0.23477 1.57112,0.30732 0.57701,0.0793 1.15614,0.14262 1.73783,0.16939 0.30728,0.0137 0.61425,0.025 0.92183,0.0274 0.10509,7.7e-4 0.42037,2.6e-4 0.31528,2.6e-4 -10.59933,-5.2e-4 -14.00492,-0.0741 -10.18119,0.006 0.6658,0.004 1.33189,-0.009 1.99591,-0.0638 0.70292,-0.0601 1.40568,-0.12294 2.10509,-0.21947 0.73484,-0.10446 1.46909,-0.21365 2.19794,-0.35793 0.76224,-0.1435 1.52161,-0.30443 2.27469,-0.49382 0.77782,-0.20338 1.55131,-0.42582 2.31031,-0.6969 0.78421,-0.27137 1.56319,-0.55909 2.33027,-0.87977 0.7846,-0.33123 1.5636,-0.67666 2.32966,-1.05254 0.78457,-0.38946 1.56899,-0.78175 2.31921,-1.24047 0.75784,-0.46177 1.50075,-0.95247 2.19386,-1.51569 0.70971,-0.57831 1.39982,-1.18306 2.03892,-1.84607 0.66843,-0.67894 1.32266,-1.373 1.95994,-2.08386 0.65152,-0.7387 1.29633,-1.484173 1.91046,-2.257213 0.63096,-0.79178 1.25036,-1.5939 1.84224,-2.41803 0.6012,-0.8402 1.19578,-1.68581 1.75646,-2.55621 0.5706,-0.88382 1.1309,-1.77504 1.66045,-2.68642 0.52718,-0.9184 1.04355,-1.84391 1.51667,-2.79413 0.47601,-0.94743 0.93227,-1.90592 1.35183,-2.88214 0.41552,-0.98033 0.81515,-1.96815 1.17485,-2.97244 0.36226,-1.01155 0.70252,-2.03207 0.9947,-3.06828 0.28492,-1.03168 0.54756,-2.0704 0.75018,-3.12351 0.20055,-1.04842 0.38161,-2.10123 0.51357,-3.16171 0.13037,-1.06468 0.23683,-2.13314 0.27959,-3.20603 0.0372,-1.06701 0.045,-2.13516 -0.006,-3.20199 -0.0512,-1.04929 -0.12452,-2.09818 -0.26935,-3.13857 -0.14459,-1.00157 -0.31802,-1.99873 -0.57188,-2.97737 -0.24845,-0.96308 -0.51438,-1.9224 -0.85267,-2.85607 -0.33226,-0.90187 -0.6957,-1.79197 -1.14832,-2.63658 -0.44683,-0.83404 -0.92103,-1.6518 -1.43739,-2.441371 -0.51466,-0.782638 -1.05011,-1.550553 -1.63389,-2.279239 -0.57152,-0.710782 -1.16244,-1.404147 -1.7816,-2.070409 -0.62878,-0.679348 -1.26435,-1.352281 -1.92848,-1.994371 -0.67008,-0.643502 -1.35118,-1.274913 -2.0569,-1.875879 -0.69353,-0.586776 -1.39447,-1.164951 -2.12557,-1.700458 -0.69884,-0.50659 -1.41276,-0.991098 -2.15684,-1.422992 -0.71443,-0.414356 -1.43865,-0.80986 -2.18159,-1.166201 -0.73117,-0.352604 -1.4648,-0.700118 -2.21223,-1.013993 -0.72949,-0.306675 -1.46483,-0.59798 -2.2091,-0.863586 -0.7456,-0.265808 -1.4955,-0.518134 -2.24799,-0.761922 -0.75164,-0.242596 -1.50731,-0.472724 -2.27362,-0.660109 -0.73532,-0.181258 -1.4745,-0.345171 -2.2174,-0.489176 -0.75553,-0.150449 -1.51295,-0.290052 -2.27091,-0.426502 -0.77515,-0.133537 -1.55051,-0.266559 -2.32933,-0.375158 -0.77232,-0.111706 -1.54637,-0.209988 -2.32146,-0.298339 -0.76206,-0.08099 -1.52464,-0.158476 -2.28891,-0.213196 -0.73881,-0.04826 -1.47804,-0.08975 -2.21824,-0.105877 -6.02494,-0.09418 14.0136,0.03598 8.70168,-0.01449 -0.6705,0.0085 -1.34114,0.03325 -2.00978,0.08741 -0.64342,0.04878 -1.28604,0.112026 -1.92584,0.198719 -0.5988,0.07882 -1.19758,0.159322 -1.78973,0.283268 -0.53481,0.121347 -1.0688,0.247396 -1.59112,0.419726 -0.50392,0.159213 -1.00463,0.328217 -1.49901,0.517642 -0.48734,0.183391 -0.97311,0.371435 -1.45391,0.572863 -0.46823,0.196727 -0.93552,0.39658 -1.39493,0.614932 -0.44433,0.213581 -0.88625,0.432721 -1.32076,0.667423 -0.41898,0.226801 -0.83062,0.466864 -1.23979,0.712375 -0.3951,0.239849 -0.78698,0.485789 -1.16664,0.751628 -0.36553,0.258731 -0.7345,0.512097 -1.09116,0.784221 -0.32764,0.244867 -0.64604,0.503456 -0.96016,0.766834 -0.2753,0.240264 -0.55254,0.478401 -0.81246,0.737082 -0.23133,0.233441 -0.45286,0.4767 -0.67686,0.717693 -0.17767,0.215694 -0.35271,0.433837 -0.53433,0.645928 -0.13547,0.172163 -0.25245,0.359487 -0.38142,0.536853 -0.0948,0.150249 -0.18994,0.299777 -0.28368,0.450494 -0.0806,0.124758 -0.14668,0.260093 -0.20946,0.39545 0,0 -10.94508,-0.554727 -10.94508,-0.554727 z"
       id="path2623"
       style="opacity:1;fill:#000000;fill-opacity:1;fill-rule:nonzero;stroke:none;stroke-width:11.54811478;stroke-linecap:butt;stroke-linejoin:round;stroke-miterlimit:4;stroke-dasharray:none;stroke-opacity:1;paint-order:fill markers stroke" />
    <path
       d="m 112.63157,188.90595 c -0.11543,0.1397 -0.21629,0.29041 -0.31695,0.44169 -0.16761,0.24371 -0.34056,0.48319 -0.51823,0.71902 -0.22013,0.29395 -0.45044,0.57914 -0.68044,0.86464 -0.27777,0.33866 -0.56048,0.67268 -0.849,1.00141 -0.31181,0.35164 -0.62498,0.70207 -0.94307,1.04757 -0.34955,0.3856 -0.70208,0.76829 -1.05781,1.14768 -0.37368,0.39682 -0.75035,0.79052 -1.12875,1.18243 -0.38985,0.40447 -0.78312,0.80532 -1.18396,1.19795 -0.40627,0.40228 -0.82718,0.78786 -1.25063,1.17022 -0.4288,0.385 -0.8707,0.75375 -1.31457,1.11957 -0.45908,0.37717 -0.93839,0.72582 -1.4235,1.06524 -0.49992,0.35079 -1.02283,0.66317 -1.55089,0.96495 -0.537626,0.3021 -1.094159,0.56389 -1.654292,0.81656 -0.569594,0.25153 -1.152824,0.46701 -1.742509,0.66092 -0.608231,0.20383 -1.232737,0.34183 -1.86136,0.45533 -4.248965,0.55497 -8.573358,0.41031 -12.842812,0.12701 -0.720977,-0.0558 -1.438327,-0.14712 -2.152193,-0.26511 -0.748741,-0.11727 -1.488112,-0.28652 -2.22487,-0.4664 -0.75546,-0.19094 -1.500169,-0.42234 -2.242414,-0.66211 -0.750753,-0.24049 -1.491842,-0.51078 -2.228171,-0.79515 -0.75736,-0.29736 -1.493683,-0.64828 -2.222797,-1.01337 -0.767129,-0.39142 -1.511511,-0.82917 -2.245175,-1.28443 -0.78156,-0.48478 -1.529096,-1.02529 -2.267862,-1.5773 -0.778855,-0.58199 -1.532131,-1.19926 -2.274571,-1.83047 -0.789686,-0.67214 -1.531303,-1.40177 -2.261033,-2.14299 -0.763129,-0.78754 -1.508679,-1.59333 -2.241552,-2.41145 -0.754699,-0.83122 -1.4818,-1.6889 -2.18994,-2.56336 -0.746433,-0.91781 -1.446367,-1.87437 -2.134706,-2.83977 -0.722514,-1.02193 -1.406321,-2.07252 -2.072427,-3.13502 -0.716647,-1.13883 -1.374737,-2.31542 -2.018877,-3.49984 -0.695474,-1.2882 -1.351104,-2.59892 -1.989201,-3.91882 -0.66596,-1.37403 -1.278626,-2.77458 -1.861416,-4.18876 -0.612238,-1.50402 -1.165824,-3.03284 -1.698548,-4.56908 -0.55075,-1.58422 -1.048806,-3.18725 -1.521272,-4.79846 -0.485124,-1.67913 -0.902452,-3.37822 -1.302244,-5.08125 -0.408313,-1.73703 -0.752204,-3.48906 -1.070367,-5.24612 -0.322519,-1.78337 -0.567598,-3.58034 -0.802259,-5.37811 -0.232746,-1.82118 -0.43039,-3.64703 -0.604579,-5.47523 -0.17644,-1.85045 -0.285805,-3.70662 -0.369489,-5.56382 -0.08364,-1.9289 -0.108104,-3.85976 -0.114031,-5.79038 -0.0052,-1.94045 0.04072,-3.88043 0.104855,-5.81956 0.06641,-1.9334 0.168292,-3.86515 0.282343,-5.79604 0.109228,-1.90458 0.245914,-3.80717 0.402263,-5.70812 0.15344,-1.88568 0.355329,-3.76641 0.570304,-5.64535 0.210715,-1.84907 0.459094,-3.69308 0.724466,-5.534373 0.261123,-1.83018 0.573851,-3.65153 0.908719,-5.46839 0.337764,-1.83183 0.736653,-3.6503 1.162074,-5.46187 0.431537,-1.82456 0.926862,-3.63166 1.438032,-5.4334 0.512337,-1.79949 1.072478,-3.58347 1.65214,-5.36042 0.571119,-1.75289 1.185015,-3.48998 1.817636,-5.21959 0.628536,-1.709 1.296495,-3.40174 1.97631,-5.08912 0.664981,-1.64703 1.36481,-3.27832 2.077732,-4.90327 0.699914,-1.59264 1.442998,-3.16395 2.202222,-4.72656 0.749307,-1.53526 1.531267,-3.05277 2.327131,-4.56221 0.772957,-1.456191 1.574326,-2.895652 2.382818,-4.330597 0.772691,-1.370888 1.565961,-2.728945 2.364888,-4.08332 0.765643,-1.302384 1.556294,-2.588379 2.355068,-3.868838 0.767843,-1.231714 1.559379,-2.447049 2.360412,-3.655465 0.781424,-1.181502 1.590735,-2.342407 2.410464,-3.495196 0.804604,-1.129183 1.634777,-2.238101 2.477053,-3.336879 0.82378,-1.072098 1.673574,-2.121982 2.53363,-3.162499 0.851242,-1.029142 1.735575,-2.027506 2.63002,-3.015718 0.878092,-0.969222 1.780649,-1.913808 2.693452,-2.847347 0.902424,-0.918985 1.834105,-1.805814 2.780997,-2.67452 0.951328,-0.871717 1.93809,-1.699475 2.936517,-2.511369 0.993611,-0.805288 2.01451,-1.572672 3.045757,-2.324376 1.038412,-0.754368 2.105054,-1.464736 3.184359,-2.153364 1.100188,-0.697806 2.234712,-1.333328 3.380129,-1.945846 1.172058,-0.6219935 2.370935,-1.1857845 3.579349,-1.7258855 1.247837,-0.554568 2.518677,-1.049505 3.795917,-1.524655 1.31983,-0.487067 2.65825,-0.915682 4.00025,-1.330536 1.36856,-0.420989 2.74857,-0.799475 4.13172,-1.164317 1.39536,-0.366627 2.79853,-0.699485 4.20455,-1.018286 1.40436,-0.315219 2.81428,-0.602173 4.22679,-0.874644 1.40852,-0.271466 2.82178,-0.515008 4.23666,-0.747461 1.41019,-0.232405 2.82428,-0.437481 4.23976,-0.631358 1.41515,-0.192311 2.83382,-0.35408198 4.25346,-0.50543898 1.4297,-0.152286 2.86225,-0.271949 4.29569,-0.378299 1.44681,-0.104357 2.89555,-0.173821 4.34458,-0.233924 1.463,-0.05816 2.92692,-0.08495 4.39084,-0.09861 5.0839,0.02141 10.17351,-0.116639 15.25554,0.09708 1.47543,0.06341 2.949,0.163613 4.42161,0.276306 1.47895,0.112836 2.95177,0.29074 4.42295,0.481785 1.50251,0.20044198 2.99727,0.45734098 4.49007,0.72383398 1.52216,0.272748 3.03376,0.603518 4.54033,0.956864 1.5194,0.358627 3.02542,0.774375 4.52589,1.210168 1.51328,0.441196 3.01567,0.920603 4.51153,1.421834 1.52111,0.515267 3.0228,1.089063 4.51717,1.682512 1.51722,0.606014 3.01642,1.259688 4.50502,1.938116 1.49902,0.682911 2.97792,1.4122555 4.44462,2.1672495 1.47501,0.7564 2.92057,1.57226 4.35739,2.404056 1.44127,0.843492 2.85987,1.728064 4.26502,2.635136 1.40309,0.904367 2.77137,1.865103 4.13007,2.839805 1.35537,0.97991 2.67921,2.005844 3.99226,3.046151 1.31411,1.044337 2.59069,2.138348 3.84635,3.25775 1.2689,1.134298 2.49564,2.317947 3.70452,3.520974 1.20837,1.207285 2.3647,2.468828 3.50327,3.747189 1.12964,1.269621 2.19989,2.594085 3.25446,3.931438 1.04873,1.337743 2.0511,2.713917 3.02643,4.110448 0.97026,1.384979 1.86538,2.824002 2.729,4.282971 0.85947,1.458743 1.63362,2.969003 2.38291,4.491537 0.75813,1.559985 1.45289,3.151764 2.1251,4.753585 0.69208,1.64812 1.30257,3.33067 1.88796,5.02248 0.60243,1.75952 1.13674,3.54283 1.6499,5.33246 0.52963,1.85402 0.98656,3.72905 1.42235,5.60903 0.44659,1.93199 0.81865,3.88118 1.16536,5.83494 0.35811,2.02734 0.63525,4.06862 0.88659,6.11289 0.25689,2.12921 0.43681,4.26706 0.59371,6.4064 0.15698,2.20206 0.24866,4.40822 0.31182,6.61511 0.0604,2.26091 0.0543,4.52273 0.0257,6.784063 -0.0335,2.27611 -0.12657,4.5505 -0.24717,6.8232 -0.12302,2.28252 -0.31352,4.55999 -0.53318,6.83433 -0.22645,2.29522 -0.50858,4.58379 -0.8172,6.86839 -0.30918,2.28341 -0.68708,4.5556 -1.09621,6.82156 -0.41353,2.27466 -0.89578,4.53471 -1.39803,6.78958 -0.49264,2.21962 -1.05092,4.42226 -1.63532,6.61725 -0.57914,2.16668 -1.20815,4.31823 -1.85562,6.4636 -0.637,2.11573 -1.33648,4.21 -2.05791,6.29577 -0.72111,2.08098 -1.51237,4.13406 -2.32818,6.17626 -0.8104,2.02493 -1.68174,4.02209 -2.57952,6.00623 -0.89817,1.98296 -1.86345,3.93143 -2.85782,5.86343 -0.99191,1.91361 -2.04775,3.78981 -3.12452,5.65248 -1.06042,1.82748 -2.17285,3.621 -3.30337,5.40192 -1.12214,1.76466 -2.29636,3.49218 -3.4923,5.20301 -1.19006,1.69457 -2.42203,3.35622 -3.67466,5.00078 -1.23995,1.62836 -2.53364,3.21064 -3.84804,4.77377 -1.30561,1.54938 -2.66226,3.05038 -4.03454,4.53532 -1.36115,1.46681 -2.76289,2.89158 -4.18367,4.29522 -1.39979,1.38072 -2.84275,2.71224 -4.29911,4.02735 -1.43812,1.29253 -2.90893,2.54449 -4.39559,3.77555 -1.47917,1.22064 -2.99395,2.39281 -4.52674,3.53884 -1.52454,1.13724 -3.07901,2.22961 -4.64301,3.30666 -1.55245,1.06834 -3.13106,2.09414 -4.72077,3.10083 -1.57132,0.99327 -3.16919,1.93949 -4.77451,2.87136 -1.57934,0.91485 -3.17898,1.79055 -4.78557,2.65195 -1.58403,0.84821 -3.18674,1.65743 -4.7962,2.45159 -1.59954,0.7885 -3.21742,1.53533 -4.84137,2.26721 -1.62131,0.72982 -3.25833,1.4205 -4.90133,2.09515 -1.65196,0.67696 -3.32216,1.30342 -4.99896,1.9097 -1.67904,0.60444 -3.37271,1.1629 -5.07011,1.70818 -1.67991,0.53944 -3.37012,1.04287 -5.06354,1.53381 -1.68208,0.48488 -3.37247,0.93712 -5.06613,1.37557 -1.66991,0.43231 -3.34676,0.83447 -5.02505,1.22958 -1.63758,0.38272 -3.27968,0.74367 -4.92391,1.09378 -1.61002,0.3445 -3.2264,0.65473 -4.84537,0.94962 -1.59217,0.2876 -3.19074,0.53423 -4.79109,0.76637 -1.5702,0.22796 -3.14436,0.4238 -4.72015,0.60431 -1.56753,0.17884 -3.13998,0.30141 -4.71398,0.39666 -1.5715,0.0946 -3.14524,0.13055 -4.71891,0.15668 -5.17064,0.0469 -10.343008,0.0953 -15.512541,-0.0377 -1.548441,-0.0398 -3.094931,-0.13159 -4.640098,-0.24073 -1.543279,-0.11523 -3.083259,-0.27083 -4.620589,-0.45206 -1.533002,-0.18126 -3.060473,-0.40828 -4.585708,-0.64944 -1.513668,-0.24783 -3.021739,-0.53125 -4.52573,-0.83606 -1.493632,-0.30277 -2.979512,-0.64472 -4.462397,-0.99975 -1.461388,-0.34949 -2.916113,-0.72758 -4.366812,-1.12222 -1.432742,-0.38748 -2.855545,-0.81327 -4.273257,-1.25641 -1.399399,-0.43751 -2.791359,-0.8998 -4.178827,-1.37665 -1.361557,-0.46752 -2.710822,-0.97279 -4.054025,-1.49453 -1.319525,-0.52131 -2.629094,-1.06968 -3.932088,-1.63427 -1.280259,-0.55228 -2.548145,-1.13473 -3.806508,-1.73907 -1.24798,-0.59437 -2.475995,-1.23218 -3.693397,-1.89146 -1.238183,-0.66155 -2.438768,-1.39473 -3.623649,-2.15396 -1.208071,-0.7767 -2.368042,-1.62985 -3.51059,-2.50658 -1.173898,-0.90193 -2.295358,-1.87406 -3.401675,-2.86353 -1.139301,-1.02273 -2.232116,-2.09973 -3.3087,-3.19329 -1.086824,-1.09514 -2.111174,-2.25348 -3.110345,-3.43499 -1.011229,-1.20945 -1.970175,-2.46453 -2.919486,-3.72687 -0.938857,-1.25401 -1.848562,-2.53111 -2.739953,-3.8221 -0.881354,-1.28219 -1.720457,-2.59483 -2.545262,-3.91702 -0.81672,-1.30467 -1.585538,-2.64073 -2.338426,-3.98619 -0.748707,-1.34933 -1.443903,-2.72954 -2.115099,-4.12215 -0.6693299,-1.38415 -1.2900256,-2.79266 -1.8864902,-4.21232 -0.5931541,-1.41695 -1.1279334,-2.85898 -1.6492472,-4.30594 -0.5110543,-1.43396 -0.9858548,-2.88156 -1.4469486,-4.3337 -0.4600638,-1.44466 -0.8795984,-2.90261 -1.2759658,-4.3675 -0.399236,-1.46976 -0.7475438,-2.95356 -1.074783,-4.44229 -0.3207709,-1.45902 -0.601773,-2.92701 -0.8747085,-4.39642 -0.2650007,-1.42712 -0.4983276,-2.86015 -0.7114605,-4.29659 -0.2054093,-1.38766 -0.36389352,-2.78202 -0.51421496,-4.17711 -0.14042944,-1.33482 -0.25490141,-2.6724 -0.35938242,-4.01073 -0.10241158,-1.30078 -0.16471514,-2.60423 -0.20407021,-3.90856 -0.03558372,-1.27692 -0.03122057,-2.55447 -0.01952581,-3.83171 0.00992311,-1.27632 0.06263904,-2.55154 0.13572797,-3.82543 0.0752385,-1.26929 0.19092044,-2.53528 0.31261281,-3.80044 0.11768827,-1.23518 0.26618906,-2.46675 0.42598976,-3.69667 0.16474996,-1.21776 0.35884716,-2.43095 0.56036826,-3.64258 0.1969223,-1.17804 0.405874,-2.35386 0.6213016,-3.52836 0.2093409,-1.13485 0.4367035,-2.26589 0.6708983,-3.39539 0.2245874,-1.09777 0.4703045,-2.1906 0.7197185,-3.28246 0.2444242,-1.06675 0.5122992,-2.12742 0.7737887,-3.18972 0,0 10.9545293,0.28731 10.9545293,0.28731 v 0 c -0.260312,1.05611 -0.526374,2.11076 -0.773338,3.17039 -0.249076,1.08397 -0.495422,2.16872 -0.71921,3.25874 -0.234136,1.12031 -0.461012,2.24225 -0.670366,3.36793 -0.215924,1.16782 -0.423876,2.33726 -0.620959,3.50871 -0.201044,1.19749 -0.393518,2.39672 -0.559742,3.60007 -0.159616,1.21653 -0.308245,2.43469 -0.425537,3.65656 -0.120848,1.25001 -0.236971,2.50073 -0.312262,3.75481 -0.07328,1.25455 -0.125606,2.51048 -0.135533,3.7675 -0.01166,1.2615 -0.01612,2.52334 0.01947,3.78453 0.03936,1.28534 0.101918,2.56977 0.203759,3.85155 0.104452,1.32665 0.21837,2.6526 0.359057,3.97569 0.149542,1.37915 0.308377,2.75743 0.5136,4.12899 0.213339,1.4221 0.446774,2.84078 0.710748,4.2537 0.272139,1.45631 0.55324,2.911 0.873913,4.35668 0.327069,1.4697 0.675478,2.93432 1.073403,4.38515 0.396774,1.44774 0.816329,2.88856 1.274506,4.31659 0.460846,1.437 0.933186,2.87021 1.445462,4.28831 0.519136,1.42683 1.054124,2.84773 1.646917,4.24339 0.596911,1.39897 1.216832,2.78718 1.883939,4.1515 0.670796,1.36891 1.363294,2.72653 2.111702,4.05139 0.752293,1.32711 1.521126,2.64414 2.335491,3.9311 0.823144,1.3047 1.661472,2.59916 2.542114,3.86266 0.891281,1.27493 1.799405,2.53708 2.737052,3.77546 0.944994,1.24196 1.900745,2.47586 2.914851,3.65773 0.998144,1.15279 2.024858,2.27831 3.104048,3.34945 1.0748,1.0697 2.164271,2.12404 3.302828,3.12018 1.102869,0.9628 2.223084,1.90476 3.394117,2.77676 1.139448,0.84654 2.297611,1.66651 3.501525,2.41104 1.184156,0.73077 2.384918,1.43179 3.615525,2.07457 1.216879,0.63932 2.444193,1.25685 3.687649,1.83822 1.25862,0.58666 2.524601,1.156 3.801834,1.69734 1.301886,0.5495 2.607073,1.09113 3.927158,1.59166 1.3425,0.50582 2.68968,0.9983 4.049063,1.45292 1.386406,0.46555 2.777124,0.9172 4.174882,1.34443 1.416847,0.4278 2.838019,0.84003 4.268268,1.21666 1.449669,0.38235 2.90331,0.74824 4.362534,1.08899 1.481025,0.34301 2.965471,0.67054 4.457126,0.95978 1.502497,0.28774 3.007387,0.56309 4.519551,0.79046 1.523146,0.2279 3.04875,0.43919 4.579452,0.60458 1.535412,0.16241 3.072779,0.3061 4.613462,0.40241 1.543086,0.0937 3.087415,0.16678 4.633075,0.19319 0.69005,0.0122 0.8668,0.0169 1.55746,0.0229 0.25975,0.003 1.03904,0.005 0.77928,0.005 -17.742543,0.0125 -12.269891,0.006 -8.476045,0 1.571102,-0.0151 3.142544,-0.0357 4.712225,-0.11179 1.57076,-0.0765 3.14072,-0.17393 4.7056,-0.33855 1.57464,-0.16165 3.14637,-0.3524 4.71507,-0.568 1.59793,-0.22374 3.19504,-0.45464 4.78591,-0.72865 1.61757,-0.28175 3.23238,-0.58054 4.84076,-0.91513 1.64307,-0.34361 3.2846,-0.69494 4.92101,-1.07175 1.67765,-0.38435 3.3523,-0.78342 5.02182,-1.20458 1.6919,-0.43008 3.38168,-0.8693 5.06231,-1.34544 1.69257,-0.47791 3.38057,-0.97391 5.05953,-1.50164 1.69509,-0.5344 3.387,-1.08016 5.06543,-1.66942 1.67418,-0.59217 3.34298,-1.201 4.99339,-1.86243 1.64155,-0.66199 3.27748,-1.33935 4.89711,-2.05799 1.6224,-0.71865 3.23842,-1.45333 4.83704,-2.22807 1.60767,-0.78229 3.20931,-1.57822 4.79216,-2.41402 1.60475,-0.84973 3.20318,-1.71257 4.78167,-2.61449 1.6029,-0.91914 3.19941,-1.85083 4.77022,-2.82875 1.58802,-0.99253 3.16663,-2.00164 4.71661,-3.05793 1.56296,-1.06199 3.11555,-2.14106 4.63901,-3.264 1.53161,-1.12609 3.04501,-2.27879 4.52171,-3.48244 1.4862,-1.21325 2.95419,-2.45053 4.39144,-3.72656 1.45494,-1.29799 2.89615,-2.61309 4.29504,-3.97684 1.42046,-1.38464 2.81899,-2.79366 4.17965,-4.2424 1.37009,-1.4679 2.72593,-2.95068 4.03074,-4.48234 1.31373,-1.54348 2.60594,-3.1072 3.84427,-4.71747 1.25196,-1.62847 2.48283,-3.27439 3.67171,-4.95374 1.1952,-1.693 2.3681,-3.40326 3.48926,-5.15078 1.12897,-1.76526 2.24079,-3.54254 3.30075,-5.35402 1.0755,-1.84384 2.12899,-3.70194 3.1217,-5.59595 0.9948,-1.91109 1.95789,-3.8403 2.85513,-5.80356 0.89723,-1.96625 1.76827,-3.94549 2.57737,-5.95321 0.81457,-2.02378 1.60599,-4.05792 2.32621,-6.12065 0.72124,-2.06968 1.42008,-4.14814 2.05642,-6.24816 0.64702,-2.1324 1.27564,-4.27099 1.85453,-6.42475 0.58394,-2.17864 1.14271,-4.36473 1.63417,-6.56835 0.50157,-2.23888 0.98343,-4.48292 1.39707,-6.74154 0.40912,-2.24819 0.78665,-4.50272 1.09537,-6.76856 0.30874,-2.26941 0.59008,-4.54292 0.81668,-6.823 0.2195,-2.25708 0.40996,-4.51731 0.53279,-6.78263 0.12056,-2.25659 0.21354,-4.5149 0.24701,-6.77493 0.0286,-2.244863 0.0347,-4.490253 -0.0256,-6.734713 -0.0631,-2.18914 -0.15463,-4.37754 -0.31155,-6.56181 -0.15653,-2.11979 -0.33621,-4.23808 -0.59314,-6.34759 -0.25087,-2.02313 -0.52785,-4.04319 -0.88563,-6.04921 -0.34615,-1.93319 -0.71812,-3.86165 -1.1641,-5.77288 -0.43463,-1.85981 -0.89179,-3.71426 -1.42079,-5.5477 -0.51168,-1.76855 -1.04529,-3.53055 -1.64793,-5.26807 -0.58363,-1.66708 -1.1955,-3.32354 -1.88518,-4.9466 -0.67009,-1.578651 -1.36322,-3.147107 -2.12205,-4.681923 -0.74667,-1.493234 -1.51973,-2.973036 -2.37837,-4.400255 -0.86305,-1.429863 -1.75823,-2.838742 -2.72403,-4.19601 -0.97599,-1.373317 -1.97441,-2.729592 -3.02223,-4.044493 -1.05156,-1.31596 -2.12253,-2.61545 -3.24965,-3.862169 -1.13611,-1.256585 -2.29181,-2.4943 -3.49809,-3.678222 -1.20717,-1.182251 -2.43232,-2.344834 -3.69937,-3.45734 -1.25587,-1.096273 -2.52961,-2.17043 -3.84088,-3.19422 -1.31061,-1.023866 -2.63251,-2.032542 -3.98734,-2.99222 -1.35617,-0.957744 -2.72433,-1.897367 -4.1247,-2.783793 -1.40447,-0.887957 -2.81863,-1.759718 -4.25967,-2.581946 -1.43416,-0.814965 -2.87992,-1.608032 -4.35145,-2.347597 -1.46644,-0.734503 -2.9421,-1.449171 -4.43882,-2.114484 -1.48772,-0.6583615 -2.98339,-1.2977625 -4.49884,-1.8840135 -1.49177,-0.575156 -2.99151,-1.128519 -4.51003,-1.622731 -1.49452,-0.484954 -2.99492,-0.950237 -4.50592,-1.376537 -1.49819,-0.417281 -3.00186,-0.813995 -4.51849,-1.15248 -1.50464,-0.333663 -3.01408,-0.644082 -4.53282,-0.900515 -1.49001,-0.253394 -2.98269,-0.491738 -4.48281,-0.671197 -1.4685,-0.175697 -2.93967,-0.326666 -4.41496,-0.425706 -1.4708,-0.100837 -2.94255,-0.188523 -4.4159,-0.237449 -4.25976,-0.13238 -12.43797,-0.03136 6.39736,-0.06276 -1.46205,5.46e-4 -2.92404,0.01893 -4.38554,0.0632 -1.44722,0.0487 -2.89408,0.109851 -4.33957,0.199791 -1.43172,0.09182 -2.86257,0.200568 -4.29057,0.342725 -1.41817,0.138715 -2.83507,0.292149 -4.2489,0.473093 -1.41428,0.18087 -2.82677,0.377357 -4.23552,0.600626 -1.41322,0.223805 -2.82543,0.455406 -4.23263,0.717712 -1.41069,0.262597 -2.81983,0.534432 -4.22237,0.841434 -1.40461,0.303221 -2.80509,0.626708 -4.19937,0.978284 -1.38013,0.353936 -2.75839,0.716018 -4.12609,1.11965 -1.33797,0.40051 -2.67433,0.80848 -3.9933,1.273407 -1.27465,0.449053 -2.54017,0.926388 -3.78757,1.452729 -1.20426,0.5167415 -2.40152,1.0519525 -3.57104,1.6502885 -1.14254,0.582249 -2.27232,1.192312 -3.37133,1.860267 -1.07939,0.659417 -2.1414,1.349475 -3.177406,2.081042 -1.030505,0.729254 -2.047676,1.479054 -3.04026,2.263698 -0.995496,0.790284 -1.981484,1.594158 -2.93083,2.444495 -0.946084,0.846157 -1.875539,1.712235 -2.77596,2.61123 -0.913231,0.91601 -1.81184,1.847865 -2.689949,2.800585 -0.890194,0.97415 -1.77649,1.952469 -2.626452,2.965298 -0.859506,1.026117 -1.708196,2.062303 -2.530848,3.120894 -0.843209,1.082862 -1.67044,2.179234 -2.47435,3.294208 -0.81947,1.13948 -1.628693,2.287188 -2.40817,3.456929 -0.801273,1.196591 -1.591176,2.401545 -2.358517,3.622154 -0.797381,1.271221 -1.589628,2.546041 -2.35348,3.839581 -0.797855,1.347237 -1.591518,2.697246 -2.363712,4.060711 -0.807508,1.424508 -1.606482,2.854388 -2.381226,4.298619 -0.79573,1.49628 -1.576007,3.00155 -2.325334,4.52377 -0.758676,1.54707 -1.500682,3.10322 -2.200229,4.6805 -0.712812,1.61262 -1.411287,3.23219 -2.076289,4.86697 -0.678548,1.67514 -1.34617,3.35524 -1.974931,5.05151 -0.632675,1.71536 -1.246287,3.43844 -1.816237,5.17771 -0.57919,1.76151 -1.138972,3.53005 -1.650775,5.3143 -0.510076,1.78384 -1.00461,3.57303 -1.436659,5.37944 -0.425661,1.79195 -0.823581,3.59122 -1.160873,5.40379 -0.334781,1.80119 -0.647774,3.60685 -0.907953,5.421613 -0.265599,1.82954 -0.513531,3.66191 -0.724016,5.49932 -0.214616,1.8663 -0.416787,3.73431 -0.569929,5.60736 -0.15646,1.89174 -0.293336,3.7851 -0.402069,5.68053 -0.113949,1.92058 -0.215769,3.84202 -0.2822,5.76511 -0.06406,1.92473 -0.109952,3.8503 -0.104789,5.77637 0.0059,1.91387 0.03028,3.82797 0.113908,5.74012 0.08364,1.83729 0.192923,3.67354 0.369068,5.50404 0.174516,1.81438 0.37121,3.62654 0.604113,5.43386 0.233538,1.7782 0.478802,3.55535 0.80134,5.31881 0.317855,1.7367 0.661954,3.46821 1.069109,5.18488 0.398593,1.68147 0.814308,3.35912 1.300547,5.01576 0.472732,1.59182 0.970321,3.17558 1.51948,4.74077 0.531681,1.51365 1.082378,3.02058 1.696056,4.50051 0.583315,1.39072 1.196174,2.76774 1.858505,4.11973 0.637204,1.30112 1.290843,2.59367 1.986508,3.86204 0.641557,1.16108 1.301102,2.31157 2.014985,3.42632 0.665293,1.03952 1.345891,2.0687 2.068369,3.0662 0.685382,0.94245 1.38689,1.87223 2.129938,2.76635 0.711051,0.85265 1.437232,1.69129 2.186055,2.50817 0.731659,0.79877 1.46979,1.59165 2.237186,2.35336 0.726159,0.71029 1.467766,1.40373 2.252862,2.04321 0.740233,0.6071 1.492023,1.19917 2.267937,1.75611 0.734626,0.52174 1.480601,1.02667 2.258147,1.47688 0.730637,0.42227 1.469205,0.8309 2.234369,1.18186 0.725848,0.33315 1.459201,0.64883 2.211311,0.91264 0.734583,0.26259 1.474405,0.50937 2.2207,0.73343 0.737655,0.21759 1.479811,0.42011 2.231671,0.57774 0.732888,0.15257 1.469783,0.2843 2.212417,0.37412 0.709239,0.0791 1.420991,0.14574 2.13495,0.14544 4.345164,-0.0532 -15.259654,0.097 -8.828804,-0.0124 0.618422,-0.0535 1.235417,-0.13665 1.839372,-0.28895 0.584422,-0.15106 1.163186,-0.32298 1.728195,-0.54146 0.55719,-0.21261 1.107024,-0.44732 1.642905,-0.7133 0.526088,-0.25781 1.040208,-0.54089 1.53944,-0.85169 0.48232,-0.30808 0.957835,-0.62832 1.415221,-0.97565 0.446922,-0.33925 0.879364,-0.69821 1.309456,-1.06023 0.422756,-0.36315 0.83914,-0.73455 1.24627,-1.11665 0.398875,-0.38206 0.797986,-0.76396 1.181274,-1.1632 0.37803,-0.38696 0.754712,-0.77529 1.127625,-1.16762 0.35515,-0.37183 0.707151,-0.74679 1.056138,-1.12494 0.311517,-0.34689 0.630404,-0.68656 0.942035,-1.03335 0.285603,-0.31874 0.574966,-0.6342 0.846525,-0.96618 0.2316,-0.26834 0.45734,-0.5422 0.67752,-0.82082 0.17455,-0.22129 0.351,-0.44094 0.51518,-0.67072 0.11317,-0.15043 0.21422,-0.30862 0.31845,-0.46574 0,0 10.93445,0.74876 10.93445,0.74876 z"
       id="path2633"
       style="opacity:1;fill:#000000;fill-opacity:1;fill-rule:nonzero;stroke:none;stroke-width:11.54811478;stroke-linecap:butt;stroke-linejoin:round;stroke-miterlimit:4;stroke-dasharray:none;stroke-opacity:1;paint-order:fill markers stroke" />
  </g>
</svg>
